<svg id="visual" viewBox="0 0 1080 540" width="1080" height="540" xmlns="http://www.w3.org/2000/svg" xmlns:xlink="http://www.w3.org/1999/xlink" version="1.1"><rect x="0" y="0" width="1080" height="540" fill="#002233"></rect><path d="M0 440L25.7 437C51.3 434 102.7 428 154.2 431.8C205.7 435.7 257.3 449.3 308.8 448.8C360.3 448.3 411.7 433.7 463 423.7C514.3 413.7 565.7 408.3 617 416.2C668.3 424 719.7 445 771.2 455.7C822.7 466.3 874.3 466.7 925.8 449.3C977.3 432 1028.7 397 1054.3 379.5L1080 362L1080 541L1054.3 541C1028.7 541 977.3 541 925.8 541C874.3 541 822.7 541 771.2 541C719.7 541 668.3 541 617 541C565.7 541 514.3 541 463 541C411.7 541 360.3 541 308.8 541C257.3 541 205.7 541 154.2 541C102.7 541 51.3 541 25.7 541L0 541Z" fill="#0066FF" stroke-linecap="round" stroke-linejoin="miter"></path></svg>